<svg xmlns="http://www.w3.org/2000/svg" viewBox="0 0 3500 343" fill="#a1d648" role="img" aria-label="のれんのチチ"><defs><path id="t" fill-rule="evenodd" d="M 481 1.482 C 476.875 2.165, 472.233 3.235, 470.685 3.861 C 466.534 5.540, 444.415 5.301, 439.500 3.523 C 436.308 2.369, 431.928 2.201, 417.812 2.692 C 405.841 3.109, 397.275 2.903, 391.312 2.056 C 383.061 0.885, 382.163 0.939, 377.213 2.903 C 370.497 5.567, 350.480 5.934, 344.654 3.500 C 340.184 1.632, 332.769 1.564, 329.200 3.357 C 324.654 5.642, 320.565 5.953, 314.401 4.480 C 306.734 2.649, 302.231 2.654, 297 4.500 C 290.938 6.639, 270.594 6.564, 265.375 4.383 C 262.347 3.118, 259.983 2.929, 254.503 3.514 C 246.648 4.352, 249.186 4.365, 197.500 3.222 C 165.889 2.523, 158.664 2.619, 154.529 3.795 C 149.732 5.159, 145.197 5.080, 133.812 3.432 C 130.647 2.974, 126.794 3.325, 121.944 4.514 C 115.089 6.194, 114.415 6.193, 107.046 4.510 C 100.631 3.045, 97.146 2.878, 86.414 3.517 C 79.311 3.941, 67.446 4.200, 60.046 4.093 C 52.499 3.984, 44.455 4.411, 41.725 5.066 C 36.165 6.400, 20.630 4.909, 13.284 2.337 C 7.641 0.361, 4.121 0.930, 1.681 4.214 C -0.126 6.645, -0.224 7.480, 0.748 12.214 C 5.140 33.626, 5.530 38.991, 5.141 72.655 C 5.031 82.259, 4.499 88.168, 3.489 91.031 C 1.434 96.857, 1.622 101.447, 4.213 108.673 C 6.208 114.236, 6.307 115.371, 5.212 120.173 C 2.713 131.137, 1.657 147.881, 3.012 155.061 C 3.844 159.472, 3.993 163.604, 3.449 167.134 C 2.097 175.890, 2.685 195.594, 4.522 203.088 C 6.180 209.856, 5.966 216.504, 3.317 240.413 C 3.018 243.115, 3.323 248.543, 3.996 252.476 C 4.892 257.718, 4.938 261.079, 4.168 265.064 C 2.445 273.974, 1.751 308.294, 3.128 316.491 C 4.023 321.818, 4.049 324.765, 3.229 327.997 C 1.279 335.678, 6.343 341.358, 13.144 339.121 C 15.597 338.315, 22.692 338.323, 39.500 339.153 C 66.764 340.498, 81.771 340.429, 92 338.911 C 97.595 338.080, 102.548 338.097, 111.500 338.977 C 134.497 341.238, 134.495 341.238, 138.461 339.581 C 143.269 337.572, 149.375 337.568, 155.251 339.570 C 159.469 341.007, 161.825 340.986, 183.179 339.325 C 213.988 336.928, 240.280 336.988, 250.282 339.478 C 256.794 341.100, 258.219 341.160, 262.094 339.979 C 267.671 338.277, 277.893 338.289, 294.776 340.017 C 307.241 341.293, 308.372 341.261, 313.276 339.488 C 320.683 336.812, 400.743 336.711, 407.876 339.369 C 413.224 341.362, 417.847 341.416, 424.797 339.566 C 431.762 337.712, 478.359 339.138, 486.119 341.443 C 491.951 343.175, 494.713 342.448, 497.966 338.325 C 500.642 334.933, 500.374 331.410, 496.547 319.719 C 493.658 310.894, 493.310 303.895, 495.500 298.654 C 497.423 294.052, 497.412 287.922, 495.473 283.280 C 494.302 280.478, 494.010 276.461, 494.223 266.063 C 494.375 258.603, 494.105 249.751, 493.622 246.392 C 492.917 241.482, 493.094 239.233, 494.525 234.926 C 496.132 230.085, 496.217 227.532, 495.402 208.533 C 494.906 196.965, 494.437 169.725, 494.361 148 C 494.284 126.275, 493.915 98.773, 493.541 86.885 C 492.926 67.332, 493.032 64.899, 494.652 61.385 C 496.123 58.198, 496.581 53.370, 497.204 34.500 C 497.622 21.850, 498.035 10.223, 498.121 8.662 C 498.306 5.323, 494.755 1.344, 491 0.682 C 489.625 0.440, 485.125 0.800, 481 1.482"/></defs><use href="#t" x="0"/><use href="#t" x="600"/><use href="#t" x="1200"/><use href="#t" x="1800"/><use href="#t" x="2400"/><use href="#t" x="3000"/></svg>
